HIERARCHY
ROOT Hips
{
     OFFSET 1.88212 96.90440 -13.34250
     CHANNELS 6 Xposition Yposition Zposition Zrotation Xrotation Yrotation
     JOINT Spine
     {
          OFFSET 0.00000 11.89050 0.00000
          CHANNELS 3 Zrotation Xrotation Yrotation
          JOINT Spine1
          {
               OFFSET -0.00000 25.65740 0.12766
               CHANNELS 3 Zrotation Xrotation Yrotation
               JOINT HEad
               {
                    OFFSET 0.00000 8.73416 0.01134
                    CHANNELS 3 Zrotation Xrotation Yrotation
                    End Site
                    {
                         OFFSET -0.29000 12.77420 2.51395
                    }
               }
               JOINT LeftShoulder1
               {
                    OFFSET 8.99000 -0.36225 -0.22000
                    CHANNELS 3 Zrotation Xrotation Yrotation
                    JOINT LeftArm
                    {
                         OFFSET 10.28270 -0.00338 0.32212
                         CHANNELS 3 Zrotation Xrotation Yrotation
                         JOINT LeftForeArm
                         {
                              OFFSET 32.76690 0.09914 -1.42434
                              CHANNELS 3 Zrotation Xrotation Yrotation
                              JOINT LeftHand
                              {
                                   OFFSET 27.56430 0.08536 1.02216
                                   CHANNELS 3 Zrotation Xrotation Yrotation
                                   End Site
                                   {
                                        OFFSET 16.74430 -0.60000 1.50291
                                   }
                              }
                         }
                    }
               }
               JOINT RightShoulder
               {
                    OFFSET -8.99000 -0.36225 -0.22000
                    CHANNELS 3 Zrotation Xrotation Yrotation
                    JOINT RightArm
                    {
                         OFFSET -10.28270 -0.00338 0.32212
                         CHANNELS 3 Zrotation Xrotation Yrotation
                         JOINT RightForeArm
                         {
                              OFFSET -32.89710 0.09914 -1.42434
                              CHANNELS 3 Zrotation Xrotation Yrotation
                              JOINT RightHand
                              {
                                   OFFSET -27.49210 0.08536 1.02216
                                   CHANNELS 3 Zrotation Xrotation Yrotation
                                   End Site
                                   {
                                        OFFSET -16.63120 -0.60000 1.50291
                                   }
                              }
                         }
                    }
               }
          }
     }
     JOINT LeftUpLeg
     {
          OFFSET 8.94580 -8.66707 0.10165
          CHANNELS 3 Zrotation Xrotation Yrotation
          JOINT LeftLeg
          {
               OFFSET 0.00000 -44.42270 1.37270
               CHANNELS 3 Zrotation Xrotation Yrotation
               JOINT LeftFoot
               {
                    OFFSET -0.25355 -42.09240 -1.46059
                    CHANNELS 3 Zrotation Xrotation Yrotation
                    JOINT LeftToes
                    {
                         OFFSET -0.04000 -4.41509 8.49910
                         CHANNELS 3 Zrotation Xrotation Yrotation
                         End Site
                         {
                              OFFSET 0.08000 -0.04745 9.77979
                         }
                    }
               }
          }
     }
     JOINT RightUpLeg
     {
          OFFSET -8.94580 -8.66707 0.10165
          CHANNELS 3 Zrotation Xrotation Yrotation
          JOINT RightLeg
          {
               OFFSET 0.00000 -44.42270 1.37270
               CHANNELS 3 Zrotation Xrotation Yrotation
               JOINT RightFoot
               {
                    OFFSET 0.25355 -42.09240 -1.46059
                    CHANNELS 3 Zrotation Xrotation Yrotation
                    JOINT RightToes
                    {
                         OFFSET 0.04000 -4.41509 8.49910
                         CHANNELS 3 Zrotation Xrotation Yrotation
                         End Site
                         {
                              OFFSET -0.08000 -0.13745 9.77979
                         }
                    }
               }
          }
     }
}
MOTION
Frames: 13
Frame Time: 0.01667
-221.71187 92.01305 36.48193 -16.57803 8.04881 -102.30323 6.00774 28.20983 -4.62003 -0.00022 0.00227 -0.00159 8.74315 -0.17976 14.16679 -3.09545 7.37067 3.77262 -101.11444 -57.54128 -81.74091 -29.30841 43.38850 -83.36407 17.31079 3.39250 -12.93347 11.95030 8.26444 -0.99576 87.35923 -2.05670 69.76137 -1.15926 29.12237 113.09016 20.54154 9.04254 -1.78061 20.91246 -7.60405 -10.20392 -25.28282 18.46129 55.85365 -4.60633 0.00011 0.00316 6.48977 -12.73056 -62.07429 -24.22386 4.97406 10.89151 41.18960 41.48313 -38.36477 -28.97112 0.02768 0.02220 4.86588 -13.38613 16.43265 
-222.64896 92.31666 37.24011 -16.63928 8.09375 -102.58641 5.49256 28.72977 -4.27368 -0.00116 0.00240 0.00183 8.85293 -0.42981 13.51683 -2.69885 7.23101 4.16916 -100.41158 -55.39428 -81.00128 -31.23543 44.13760 -83.18739 14.39621 -2.08317 -16.13954 12.07950 8.12484 -1.14065 86.62993 -4.22087 67.97681 -1.10774 28.95763 113.40026 25.06922 7.64576 -8.33500 19.96658 -7.64624 -7.96665 -24.45909 20.36264 54.90220 -4.44769 0.00118 0.00233 1.91571 -13.99253 -72.50854 -24.59182 4.76572 11.73096 44.00314 42.70842 -40.30854 -28.09936 0.02420 0.03108 8.53958 -21.43866 13.74122 
-223.53253 92.51287 37.93497 -16.65698 8.09846 -102.78660 4.85813 29.35479 -3.47318 -0.00776 0.02205 0.02565 8.97512 -0.67296 11.96226 -2.20778 7.08545 4.55087 -99.98130 -53.05340 -80.64481 -35.23675 45.53366 -82.16665 11.04887 -7.21510 -20.83035 9.66830 9.34249 1.42918 87.53035 -9.64056 67.37068 -1.51525 28.76614 113.92004 30.75893 7.04597 -14.58489 19.01365 -8.05863 -5.74936 -23.45340 22.62355 53.90646 -4.43146 0.00213 0.00124 -1.25452 -14.65320 -79.18177 -25.11450 4.74683 12.80793 47.43015 44.03515 -42.54370 -28.08092 0.02793 0.02020 14.16297 -32.44205 14.97348 
-224.34953 92.59097 38.55109 -16.63818 7.92566 -102.68763 3.99253 30.22977 -1.20936 -0.01428 0.06020 0.09359 8.79075 -0.57334 7.49301 -4.58027 10.75604 15.49311 -100.15127 -39.26633 -84.41104 -46.16394 48.15261 -77.45313 18.86836 6.44278 -16.85234 1.35015 10.87276 10.67748 91.24490 -20.90962 70.28248 -4.71263 27.04106 112.54459 37.04576 13.49018 -18.20971 17.91432 -9.70009 -3.72948 -22.42562 25.84371 53.06807 -4.51990 0.00307 0.00020 -1.09092 -15.49173 -77.21481 -26.14236 5.37022 14.73229 52.23995 45.39547 -45.20675 -31.93005 0.16854 -0.04261 15.29693 -34.22262 13.39902 
-225.06650 92.48207 39.06551 -16.64395 7.55334 -102.32727 2.97691 31.21501 2.27291 -0.00537 0.05183 0.08448 8.21099 0.29607 0.78889 -3.36702 10.31857 13.35770 -101.40361 -42.12933 -84.02209 -58.02515 51.04445 -73.33561 18.53826 6.42664 -18.64810 -7.02453 9.81317 18.14527 93.49677 -29.16427 72.60231 -11.43355 23.41323 108.47290 35.12715 10.62401 -24.12837 16.73162 -12.25952 -2.02949 -21.53300 30.01441 52.48034 -4.76388 0.00397 -0.00023 -2.57538 -16.31035 -79.43970 -27.36030 6.54745 17.45995 54.22250 44.12359 -46.03821 -30.13282 0.00056 0.02234 23.58150 -52.25508 28.79492 
-225.62823 92.12922 39.45568 -16.70376 6.97678 -101.77203 1.87666 32.21724 6.66218 0.00327 0.04396 0.06323 7.44288 2.20526 -7.54244 -1.76348 9.99854 10.05581 -102.81120 -47.42175 -82.53699 -69.01438 53.91887 -70.22305 22.25982 12.68016 -17.36342 -15.01863 7.57413 22.74184 93.84351 -34.60842 72.36964 -19.74481 17.70348 103.07903 38.57230 12.22888 -27.39783 15.50002 -15.48503 -0.75546 -20.94448 34.98058 52.29552 -5.14171 0.00524 -0.00145 -3.34651 -17.43618 -79.53355 -28.34489 7.67277 19.83515 54.31713 41.42275 -45.87654 -28.50181 0.00437 0.00376 15.81967 -44.78646 18.86800 
-226.00471 91.59937 39.69667 -16.83434 6.24350 -101.08532 0.71025 33.22931 11.66696 0.00608 0.03988 0.04272 7.35780 3.92742 -16.22223 -2.60852 13.62949 17.01465 -104.10052 -38.54418 -84.36172 -74.88453 54.93916 -67.63792 21.50776 11.13280 -18.82661 -22.63457 5.14122 25.30572 92.49454 -38.12786 69.36672 -28.06704 11.13599 95.56579 38.39231 0.74413 -33.71858 14.17846 -18.19877 0.16089 -20.34452 39.48319 52.03699 -5.47904 0.00650 -0.00145 -4.59822 -18.56879 -80.65610 -29.30884 8.65652 21.91046 56.40778 40.72115 -47.72161 -35.30637 0.18151 -0.04736 24.88627 -51.18330 22.19286 
-226.20891 90.97118 39.78707 -17.04157 5.38682 -100.31580 -0.61544 34.29142 17.12383 -0.00540 0.03697 0.03317 7.99961 5.31181 -25.01167 -0.75670 12.90166 11.76177 -104.45402 -40.40686 -83.29845 -71.93405 52.42269 -68.29325 19.65892 10.77880 -20.41873 -22.31352 6.03745 18.13029 82.69749 -31.82555 66.15214 -35.28241 6.64958 84.25130 47.66790 -5.00809 -32.17636 12.77621 -20.45261 0.76931 -19.72464 43.34336 51.71878 -5.62587 0.00679 0.00009 -5.69452 -19.59838 -81.17283 -29.99997 9.52021 23.67975 55.85746 39.86121 -48.18665 -30.33972 0.00498 0.00439 18.96348 -49.67337 18.82763 
-226.25870 90.34240 39.73052 -17.32619 4.45772 -99.48246 -2.17269 35.44356 22.77455 -0.00576 0.03895 0.01539 9.28791 6.18942 -33.53780 0.88741 12.01111 6.66045 -104.40635 -41.22378 -82.08844 -69.72173 51.30654 -69.14766 16.84341 7.85551 -22.35401 -29.87062 5.37173 20.17644 82.10703 -33.22758 63.97629 -38.60332 3.75011 71.00291 38.38010 -4.21725 -22.47346 11.32972 -22.27841 1.09784 -19.06263 46.42729 51.32853 -5.49272 0.00653 0.00166 -6.88010 -20.34345 -81.82600 -30.59092 10.24270 25.17572 57.15226 40.65439 -51.03596 -30.03802 0.10979 0.02350 20.58665 -53.25354 19.68975 
-226.18814 89.79572 39.53563 -17.67261 3.50193 -98.59040 -4.18961 36.76731 28.47296 -0.01638 0.05841 0.00672 11.18272 6.28216 -41.42173 2.35177 10.78209 1.81258 -104.06604 -41.42079 -80.80550 -67.81565 51.02174 -70.18686 16.87921 7.91062 -22.05696 -28.89019 6.89037 12.60731 74.93259 -25.07529 65.45412 -38.16488 1.60554 56.18215 50.56957 -18.47155 -26.76507 9.88177 -23.69296 1.17190 -18.33389 48.66319 50.84058 -5.04989 0.00620 0.00168 -7.97160 -20.73250 -82.18898 -31.12809 10.84885 26.41133 58.16015 40.74976 -53.57857 -28.35581 0.00563 0.02214 19.12224 -53.89642 18.82992 
-226.02773 89.37655 39.20672 -18.06179 2.54820 -97.64482 -6.87319 38.31398 33.87511 -0.01767 0.06995 -0.02869 13.44089 5.51032 -48.00156 3.70878 9.13683 -2.59544 -103.76476 -41.42052 -79.71781 -66.12515 51.14265 -71.18431 15.77205 6.19689 -22.38064 -26.62519 7.96103 4.65088 68.09610 -16.56182 68.92644 -36.99589 -4.18957 41.24558 36.72469 -2.05855 -15.24170 8.47212 -24.69936 1.02532 -17.53123 50.04526 50.23885 -4.31696 0.00592 -0.00039 -9.02478 -20.71588 -82.45026 -31.64396 11.37847 27.40079 59.21389 40.61004 -56.00369 -27.99160 0.00353 0.00799 19.41217 -55.18037 18.86143 
-225.83023 89.09175 38.76753 -18.45717 1.62126 -96.66257 -9.04228 39.17706 37.72884 -0.00432 -0.02933 -0.07056 15.58765 5.39242 -53.03008 4.58019 8.50074 -6.21619 -103.55415 -41.35598 -78.90739 -64.69038 51.48701 -71.82825 16.13280 5.90094 -21.66086 -24.88851 9.23117 -1.74962 63.92396 -10.69592 71.62134 -39.04332 -10.93449 33.86586 42.34527 -2.00201 -19.80921 7.14414 -25.31088 0.70345 -16.67714 50.62750 49.54089 -3.34782 0.00551 -0.00381 -9.99132 -20.34405 -82.52589 -32.13051 11.85113 28.15282 60.33454 40.31205 -58.26287 -27.33665 0.00488 0.01021 18.90940 -55.73736 18.48607 
-225.63724 88.92847 38.23795 -18.82529 0.73655 -95.67012 -11.87050 40.34531 40.25861 -0.01224 0.06724 -0.11165 17.66338 4.63245 -55.62264 5.41101 7.28562 -8.31877 -103.68462 -41.20126 -78.43191 -63.76955 51.92079 -71.85383 15.71913 4.53508 -21.69246 -22.05587 9.08288 -6.57570 60.99145 -6.53708 72.43684 -41.81145 -17.05533 30.73481 32.14022 4.87977 -1.68860 5.93277 -25.55129 0.25452 -15.82733 50.51452 48.80359 -2.21482 0.00480 -0.00727 -10.88138 -19.73626 -82.50574 -32.58958 12.28142 28.68266 61.53636 39.96698 -60.32925 -27.04355 0.00535 0.00774 18.90981 -56.45773 18.32463 
